<svg xmlns="http://www.w3.org/2000/svg" width="28.812" height="28.82"><path data-name="Logo Instagram" d="M23.24.01H5.572A5.572 5.572 0 0 0 .006 5.57v17.67a5.575 5.575 0 0 0 5.566 5.57H23.24a5.575 5.575 0 0 0 5.566-5.57V5.57A5.573 5.573 0 0 0 23.24.01zm1.6 3.32h.637v4.88l-4.865.01-.017-4.88zM10.3 11.45a5.065 5.065 0 1 1-.959 2.96 5.079 5.079 0 0 1 .955-2.96zM26 23.24A2.758 2.758 0 0 1 23.24 26H5.572a2.758 2.758 0 0 1-2.76-2.76V11.45h4.3a7.875 7.875 0 1 0 14.589 0h4.3v11.79z" fill="#ffa500" fill-rule="evenodd"/></svg>