<svg xmlns="http://www.w3.org/2000/svg" width="16" height="16"><path d="M12.91 0H3.09A3.1 3.1 0 0 0 0 3.092v9.817A3.1 3.1 0 0 0 3.09 16h9.82A3.1 3.1 0 0 0 16 12.908V3.091A3.1 3.1 0 0 0 12.91 0zm.88 1.844h.36v2.712l-2.7.009-.01-2.712zM5.72 6.357a2.8 2.8 0 0 1 4.56 0A2.763 2.763 0 0 1 10.82 8a2.82 2.82 0 0 1-5.64 0 2.763 2.763 0 0 1 .54-1.643zm8.72 6.551a1.535 1.535 0 0 1-1.53 1.533H3.09a1.535 1.535 0 0 1-1.53-1.533V6.357h2.39A4.289 4.289 0 0 0 3.62 8a4.375 4.375 0 0 0 8.75 0 4.282 4.282 0 0 0-.32-1.643h2.39v6.551z" fill="#f2f2f2" fill-rule="evenodd"/></svg>