<svg xmlns="http://www.w3.org/2000/svg" width="8" height="16"><path d="M3.27.366a1.453 1.453 0 0 1 .28-.137c.1-.038.21-.072.32-.1l.66-.126h.43l3.03.229H8l-.31 2.7h-.01L6.01 2.76h-.05l-.17.023-.06.023-.19.091a.133.133 0 0 0-.09.057l-.14.149a.54.54 0 0 0-.09.137q-.03.069-.06.149a.906.906 0 0 0-.03.172.918.918 0 0 0-.02.172l.03 1.692 2.45.023-.35 2.676-2.13.08v7.788L5.1 16H1.79V8.131H0V5.444h1.72V5.42l.01-.034.06-2.871.02-.16v-.08l.03-.08a.5.5 0 0 1 .04-.172.452.452 0 0 1 .08-.148 1.036 1.036 0 0 1 .13-.309 1 1 0 0 1 .18-.286 1.161 1.161 0 0 1 .2-.24 1.866 1.866 0 0 1 .22-.229V.8z" fill="#fff" fill-rule="evenodd"/></svg>